<svg width="283" height="87" viewBox="0 0 283 87" fill="none" xmlns="http://www.w3.org/2000/svg">
<path d="M271.375 2.45166C276.357 2.45166 280.411 6.50541 280.411 11.4873V75.5092C280.411 80.4929 276.357 84.5467 271.375 84.5467H10.9116C5.9297 84.5467 1.87595 80.4929 1.87595 75.5092V11.4873C1.87595 6.50541 5.9297 2.45166 10.9116 2.45166H271.373M271.373 0.57666H10.9116C4.8872 0.57666 0.000946045 5.46291 0.000946045 11.4892V75.5111C0.000946045 81.5373 4.88532 86.4236 10.9116 86.4236H271.373C277.4 86.4236 282.284 81.5392 282.284 75.5111V11.4892C282.284 5.46291 277.4 0.578537 271.373 0.578537V0.57666Z" fill="black"/>
<path d="M29.7234 35.6541C25.1447 43.6004 28.0547 55.6604 33.1191 62.971C35.6466 66.6272 38.2059 69.9085 41.7103 69.9085C41.7759 69.9085 41.8416 69.9085 41.9109 69.9047C43.5572 69.8391 44.7478 69.3329 45.8991 68.8416C47.1909 68.2904 48.5278 67.7222 50.6241 67.7222C52.7203 67.7222 53.8903 68.2735 55.1203 68.8041C56.3334 69.3291 57.5822 69.8729 59.4272 69.8372C63.3759 69.7641 65.8003 66.2222 67.9378 63.0985C70.1691 59.8379 71.2903 56.671 71.6672 55.4597L71.6822 55.411C71.7534 55.1954 71.6522 54.961 71.4459 54.8672C71.4459 54.8672 71.4197 54.856 71.4141 54.8541C70.7184 54.5691 64.6191 51.8635 64.5553 44.4891C64.4953 38.4966 69.1303 35.326 70.0603 34.7504L70.1034 34.7222C70.2047 34.6585 70.2741 34.5554 70.2984 34.4372C70.3228 34.3191 70.2984 34.1972 70.2291 34.0979C67.0303 29.416 62.1272 28.711 60.1528 28.6266C59.8678 28.5985 59.5716 28.5835 59.2753 28.5835C56.9559 28.5835 54.7359 29.4591 52.9509 30.1622C51.7191 30.6479 50.6541 31.0679 49.9228 31.0679C49.0978 31.0679 48.0272 30.6422 46.7897 30.1529C45.1322 29.4947 43.2534 28.7504 41.2659 28.7504C41.2191 28.7504 41.1722 28.7504 41.1253 28.7522C36.5016 28.8197 32.1328 31.4654 29.7253 35.6522L29.7234 35.6541Z" fill="black"/>
<path d="M60.1566 15.7416C57.3572 15.856 53.9991 17.5791 51.9928 19.9303C50.2866 21.9047 48.6197 25.201 49.0585 28.5216C49.0866 28.7297 49.2553 28.8891 49.4653 28.906C49.6547 28.921 49.846 28.9285 50.0391 28.9285C52.7766 28.9285 55.7297 27.4135 57.7453 24.976C59.8678 22.4016 60.9403 19.0978 60.616 16.1372C60.5897 15.9047 60.3853 15.7322 60.1566 15.7416Z" fill="black"/>
<path d="M92.3672 17.4497H97.6753C99.0684 17.4497 100.304 17.7366 101.384 18.3122C102.464 18.8878 103.304 19.6828 103.904 20.6991C104.504 21.7153 104.804 22.8685 104.804 24.1585C104.804 25.4485 104.504 26.6016 103.904 27.6178C103.304 28.6341 102.464 29.4291 101.384 30.0028C100.304 30.5785 99.0684 30.8653 97.6753 30.8653H92.3672V17.4497ZM97.5984 29.9841C98.8378 29.9841 99.9291 29.7385 100.876 29.2453C101.821 28.7541 102.55 28.066 103.06 27.1847C103.57 26.3035 103.827 25.2947 103.827 24.1566C103.827 23.0185 103.572 22.0097 103.06 21.1285C102.548 20.2472 101.821 19.561 100.876 19.0678C99.9309 18.5766 98.8378 18.3309 97.5984 18.3309H93.3441V29.9822H97.5984V29.9841Z" fill="black"/>
<path d="M109.24 30.2897C108.481 29.8547 107.883 29.2509 107.448 28.4784C107.013 27.7059 106.795 26.8341 106.795 25.8628C106.795 24.8916 107.013 24.0197 107.448 23.2472C107.883 22.4747 108.479 21.8709 109.24 21.4359C110 21.0009 110.853 20.7834 111.8 20.7834C112.747 20.7834 113.598 21.0009 114.359 21.4359C115.118 21.8709 115.717 22.4747 116.152 23.2472C116.587 24.0197 116.804 24.8916 116.804 25.8628C116.804 26.8341 116.587 27.7059 116.152 28.4784C115.717 29.2509 115.12 29.8547 114.359 30.2897C113.6 30.7247 112.747 30.9422 111.8 30.9422C110.853 30.9422 110.002 30.7247 109.24 30.2897ZM113.858 29.5416C114.466 29.1835 114.944 28.6866 115.297 28.0472C115.647 27.4078 115.823 26.6803 115.823 25.8628C115.823 25.0453 115.647 24.3178 115.297 23.6784C114.944 23.0391 114.466 22.5422 113.858 22.1841C113.251 21.826 112.565 21.6478 111.798 21.6478C111.031 21.6478 110.345 21.826 109.737 22.1841C109.13 22.5422 108.652 23.0409 108.299 23.6784C107.947 24.3178 107.772 25.0453 107.772 25.8628C107.772 26.6803 107.948 27.4097 108.299 28.0472C108.65 28.6866 109.13 29.1853 109.737 29.5416C110.345 29.8997 111.031 30.0778 111.798 30.0778C112.565 30.0778 113.251 29.8997 113.858 29.5416Z" fill="black"/>
<path d="M133.78 20.8604L129.985 30.8635H129.085L125.712 22.1822L122.32 30.8635H121.439L117.644 20.8604H118.565L121.898 29.791L125.309 20.8604H126.134L129.526 29.7722L132.899 20.8604H133.78Z" fill="black"/>
<path d="M143.86 21.8765C144.588 22.604 144.953 23.6521 144.953 25.019V30.8634H143.995V25.094C143.995 23.969 143.71 23.114 143.142 22.5252C142.574 21.9384 141.779 21.644 140.755 21.644C139.58 21.644 138.653 21.9965 137.977 22.6978C137.3 23.4009 136.96 24.3459 136.96 25.5346V30.8615H136.002V20.8584H136.923V23.024C137.268 22.3209 137.782 21.7715 138.466 21.3759C139.148 20.9803 139.958 20.7815 140.89 20.7815C142.143 20.7815 143.133 21.1452 143.86 21.8746V21.8765Z" fill="black"/>
<path d="M148.9 16.6453H149.858V30.8653H148.9V16.6453Z" fill="black"/>
<path d="M155.253 30.2897C154.492 29.8547 153.895 29.2509 153.46 28.4784C153.025 27.7059 152.808 26.8341 152.808 25.8628C152.808 24.8916 153.025 24.0197 153.46 23.2472C153.895 22.4747 154.492 21.8709 155.253 21.4359C156.012 21.0009 156.865 20.7834 157.81 20.7834C158.755 20.7834 159.608 21.0009 160.37 21.4359C161.129 21.8709 161.727 22.4747 162.162 23.2472C162.597 24.0197 162.813 24.8916 162.813 25.8628C162.813 26.8341 162.595 27.7059 162.162 28.4784C161.727 29.2509 161.131 29.8547 160.37 30.2897C159.608 30.7247 158.757 30.9422 157.81 30.9422C156.863 30.9422 156.012 30.7247 155.253 30.2897ZM159.871 29.5416C160.478 29.1835 160.957 28.6866 161.309 28.0472C161.66 27.4078 161.836 26.6803 161.836 25.8628C161.836 25.0453 161.66 24.3178 161.309 23.6784C160.957 23.0391 160.478 22.5422 159.871 22.1841C159.263 21.826 158.577 21.6478 157.81 21.6478C157.043 21.6478 156.357 21.826 155.75 22.1841C155.142 22.5422 154.664 23.0409 154.312 23.6784C153.959 24.3178 153.785 25.0453 153.785 25.8628C153.785 26.6803 153.961 27.4097 154.312 28.0472C154.662 28.6866 155.142 29.1853 155.75 29.5416C156.357 29.8997 157.043 30.0778 157.81 30.0778C158.577 30.0778 159.263 29.8997 159.871 29.5416Z" fill="black"/>
<path d="M171.974 21.734C172.638 22.3659 172.97 23.2959 172.97 24.5221V30.8652H172.049V29.0821C171.73 29.669 171.263 30.1265 170.65 30.4527C170.037 30.779 169.302 30.9421 168.447 30.9421C167.335 30.9421 166.458 30.6796 165.813 30.1565C165.168 29.6334 164.845 28.9434 164.845 28.0865C164.845 27.2296 165.142 26.5827 165.736 26.0652C166.33 25.5477 167.279 25.289 168.582 25.289H172.013V24.4846C172.013 23.5527 171.76 22.844 171.256 22.3565C170.752 21.8709 170.013 21.629 169.042 21.629C168.378 21.629 167.742 21.7434 167.135 21.974C166.527 22.2046 166.013 22.5102 165.592 22.8946L165.112 22.2046C165.61 21.7584 166.21 21.4096 166.913 21.1602C167.617 20.9109 168.352 20.7871 169.117 20.7871C170.356 20.7871 171.308 21.104 171.972 21.7359L171.974 21.734ZM170.699 29.5827C171.28 29.2002 171.717 28.6434 172.012 27.9159V26.0371H168.601C167.617 26.0371 166.904 26.2152 166.463 26.5734C166.023 26.9315 165.802 27.4227 165.802 28.049C165.802 28.6752 166.043 29.2152 166.529 29.5921C167.015 29.969 167.697 30.1584 168.58 30.1584C169.411 30.1584 170.116 29.9671 170.697 29.5827H170.699Z" fill="black"/>
<path d="M185.83 16.6453V30.8653H184.891V28.5084C184.495 29.2884 183.938 29.8884 183.224 30.3103C182.508 30.7321 181.698 30.9421 180.79 30.9421C179.883 30.9421 179.015 30.7246 178.261 30.2896C177.507 29.8546 176.917 29.2546 176.489 28.4878C176.062 27.7209 175.848 26.8471 175.848 25.8628C175.848 24.8784 176.062 24.0009 176.489 23.2284C176.917 22.4559 177.507 21.8559 178.261 21.4265C179.015 20.999 179.858 20.7853 180.79 20.7853C181.722 20.7853 182.487 20.9953 183.196 21.4171C183.905 21.839 184.463 22.4259 184.872 23.1796V16.6453H185.83ZM182.907 29.5434C183.515 29.1853 183.993 28.6884 184.345 28.049C184.696 27.4096 184.872 26.6821 184.872 25.8646C184.872 25.0471 184.696 24.3196 184.345 23.6803C183.993 23.0409 183.515 22.544 182.907 22.1859C182.3 21.8278 181.613 21.6496 180.847 21.6496C180.08 21.6496 179.393 21.8278 178.786 22.1859C178.178 22.544 177.7 23.0428 177.348 23.6803C176.995 24.3196 176.821 25.0471 176.821 25.8646C176.821 26.6821 176.997 27.4115 177.348 28.049C177.698 28.6884 178.178 29.1871 178.786 29.5434C179.393 29.9015 180.08 30.0796 180.847 30.0796C181.613 30.0796 182.3 29.9015 182.907 29.5434Z" fill="black"/>
<path d="M196.15 30.2897C195.391 29.8547 194.793 29.2509 194.358 28.4784C193.923 27.7059 193.705 26.8341 193.705 25.8628C193.705 24.8916 193.923 24.0197 194.358 23.2472C194.793 22.4747 195.389 21.8709 196.15 21.4359C196.91 21.0009 197.763 20.7834 198.71 20.7834C199.657 20.7834 200.508 21.0009 201.267 21.4359C202.027 21.8709 202.625 22.4747 203.06 23.2472C203.495 24.0197 203.71 24.8916 203.71 25.8628C203.71 26.8341 203.493 27.7059 203.06 28.4784C202.625 29.2509 202.028 29.8547 201.267 30.2897C200.508 30.7247 199.655 30.9422 198.71 30.9422C197.765 30.9422 196.912 30.7247 196.15 30.2897ZM200.768 29.5416C201.376 29.1835 201.854 28.6866 202.207 28.0472C202.557 27.4078 202.733 26.6803 202.733 25.8628C202.733 25.0453 202.557 24.3178 202.207 23.6784C201.854 23.0391 201.376 22.5422 200.768 22.1841C200.161 21.826 199.475 21.6478 198.708 21.6478C197.941 21.6478 197.255 21.826 196.647 22.1841C196.04 22.5422 195.562 23.0409 195.209 23.6784C194.857 24.3178 194.682 25.0453 194.682 25.8628C194.682 26.6803 194.858 27.4097 195.209 28.0472C195.56 28.6866 196.04 29.1853 196.647 29.5416C197.255 29.8997 197.941 30.0778 198.708 30.0778C199.475 30.0778 200.161 29.8997 200.768 29.5416Z" fill="black"/>
<path d="M214.538 21.8765C215.266 22.604 215.632 23.6521 215.632 25.019V30.8634H214.673V25.094C214.673 23.969 214.388 23.114 213.82 22.5252C213.252 21.9384 212.457 21.644 211.433 21.644C210.258 21.644 209.332 21.9965 208.655 22.6978C207.978 23.4009 207.638 24.3459 207.638 25.5346V30.8615H206.68V20.8584H207.601V23.024C207.946 22.3209 208.46 21.7715 209.144 21.3759C209.827 20.9803 210.637 20.7815 211.568 20.7815C212.821 20.7815 213.811 21.1452 214.538 21.8746V21.8765Z" fill="black"/>
<path d="M229.467 30.2334C229.223 30.4641 228.922 30.6384 228.556 30.7603C228.192 30.8822 227.812 30.9422 227.416 30.9422C226.546 30.9422 225.877 30.7022 225.404 30.2241C224.932 29.7441 224.695 29.0784 224.695 28.2216V21.6872H222.856V20.8641H224.695V18.6797H225.653V20.8641H228.835V21.6872H225.653V28.1259C225.653 28.7766 225.809 29.2734 226.122 29.6109C226.435 29.9503 226.898 30.1191 227.512 30.1191C228.125 30.1191 228.655 29.9334 229.064 29.5641L229.467 30.2353V30.2334Z" fill="black"/>
<path d="M239.988 21.8766C240.715 22.6041 241.081 23.6522 241.081 25.0191V30.8635H240.123V25.0941C240.123 23.9691 239.838 23.1141 239.27 22.5253C238.702 21.9385 237.907 21.6441 236.883 21.6441C235.707 21.6441 234.781 21.9966 234.104 22.6979C233.427 23.401 233.088 24.346 233.088 25.5347V30.8616H232.13V16.6416H233.088V22.9472C233.433 22.2572 233.943 21.7247 234.622 21.3478C235.298 20.971 236.097 20.7816 237.018 20.7816C238.27 20.7816 239.26 21.1453 239.988 21.8747V21.8766Z" fill="black"/>
<path d="M253.499 26.0934H244.895C244.921 26.8734 245.118 27.5653 245.489 28.1728C245.86 28.7803 246.361 29.2491 246.993 29.5809C247.625 29.9128 248.337 30.0797 249.13 30.0797C249.781 30.0797 250.385 29.9616 250.942 29.7253C251.497 29.4891 251.96 29.1403 252.331 28.6809L252.886 29.3128C252.451 29.8378 251.905 30.2391 251.247 30.5203C250.589 30.8016 249.877 30.9422 249.11 30.9422C248.112 30.9422 247.225 30.7247 246.445 30.2897C245.665 29.8547 245.056 29.2547 244.615 28.4878C244.175 27.721 243.953 26.8472 243.953 25.8628C243.953 24.8785 244.162 24.0197 244.576 23.2472C244.99 22.4747 245.562 21.8709 246.292 21.4359C247.019 21.0009 247.837 20.7834 248.744 20.7834C249.652 20.7834 250.465 20.9972 251.187 21.4247C251.909 21.8522 252.477 22.4503 252.893 23.2172C253.308 23.9841 253.516 24.8522 253.516 25.8234L253.497 26.0916L253.499 26.0934ZM246.848 22.0978C246.286 22.4109 245.836 22.8516 245.497 23.4197C245.157 23.9878 244.962 24.631 244.912 25.3453H252.577C252.539 24.6291 252.346 23.9916 252.001 23.4291C251.656 22.8666 251.202 22.4259 250.64 22.1072C250.077 21.7884 249.445 21.6272 248.742 21.6272C248.039 21.6272 247.407 21.7847 246.845 22.0959L246.848 22.0978Z" fill="black"/>
<path d="M106.555 60.5222H95.0935L92.8341 65.8285H88.4447L98.7609 42.9028H102.953L113.302 65.8285H108.848L106.555 60.5222ZM105.147 57.181L100.823 47.1591L96.5335 57.181H105.147Z" fill="black"/>
<path d="M130.085 49.2554C131.427 49.9979 132.481 51.046 133.246 52.3997C134.009 53.7535 134.392 55.3154 134.392 57.0835C134.392 58.8516 134.009 60.4191 133.246 61.7822C132.481 63.1472 131.429 64.201 130.085 64.9435C128.742 65.686 127.22 66.0572 125.515 66.0572C123.157 66.0572 121.291 65.2716 119.915 63.6985V72.181H115.822V48.3385H119.72V50.6316C120.397 49.8028 121.231 49.1803 122.225 48.7641C123.218 48.3497 124.315 48.1416 125.515 48.1416C127.218 48.1416 128.74 48.5129 130.085 49.2554ZM128.774 61.0453C129.745 60.0422 130.231 58.7204 130.231 57.0835C130.231 55.4466 129.745 54.1247 128.774 53.1197C127.803 52.1166 126.563 51.6141 125.058 51.6141C124.075 51.6141 123.19 51.8391 122.405 52.2853C121.619 52.7335 120.997 53.371 120.537 54.2016C120.078 55.0322 119.849 55.9922 119.849 57.0835C119.849 58.1747 120.078 59.1366 120.537 59.9654C120.997 60.796 121.617 61.4335 122.405 61.8816C123.19 62.3297 124.075 62.5529 125.058 62.5529C126.563 62.5529 127.803 62.0503 128.774 61.0472V61.0453Z" fill="black"/>
<path d="M152.551 49.2554C153.893 49.9979 154.947 51.046 155.712 52.3997C156.475 53.7535 156.858 55.3154 156.858 57.0835C156.858 58.8516 156.475 60.4191 155.712 61.7822C154.947 63.1472 153.895 64.201 152.551 64.9435C151.208 65.686 149.686 66.0572 147.982 66.0572C145.623 66.0572 143.757 65.2716 142.381 63.6985V72.181H138.288V48.3385H142.186V50.6316C142.863 49.8028 143.697 49.1803 144.691 48.7641C145.685 48.3497 146.782 48.1416 147.982 48.1416C149.684 48.1416 151.207 48.5129 152.551 49.2554ZM151.24 61.0453C152.212 60.0422 152.697 58.7204 152.697 57.0835C152.697 55.4466 152.212 54.1247 151.24 53.1197C150.269 52.1166 149.03 51.6141 147.524 51.6141C146.542 51.6141 145.657 51.8391 144.871 52.2853C144.085 52.7335 143.463 53.371 143.003 54.2016C142.544 55.0322 142.315 55.9922 142.315 57.0835C142.315 58.1747 142.544 59.1366 143.003 59.9654C143.463 60.796 144.083 61.4335 144.871 61.8816C145.657 62.3297 146.542 62.5529 147.524 62.5529C149.03 62.5529 150.269 62.0503 151.24 61.0472V61.0453Z" fill="black"/>
<path d="M172.169 65.4008C170.521 64.8983 169.216 64.2327 168.256 63.4039L169.73 60.0964C170.669 60.8389 171.82 61.4445 173.185 61.9133C174.55 62.3839 175.919 62.6183 177.295 62.6183C178.998 62.6183 180.269 62.3464 181.111 61.7989C181.951 61.2533 182.371 60.5333 182.371 59.6371C182.371 58.9827 182.137 58.4408 181.666 58.0152C181.195 57.5896 180.601 57.2577 179.881 57.0158C179.161 56.7758 178.178 56.5039 176.933 56.1964C175.186 55.7821 173.772 55.3677 172.692 54.9514C171.612 54.537 170.684 53.8864 169.908 53.0033C169.133 52.1183 168.745 50.9239 168.745 49.4164C168.745 48.1508 169.088 46.9977 169.777 45.9608C170.465 44.9239 171.502 44.0989 172.887 43.4877C174.273 42.8764 175.972 42.5708 177.98 42.5708C179.377 42.5708 180.753 42.7452 182.107 43.0939C183.46 43.4427 184.628 43.9452 185.611 44.5996L184.268 47.9071C183.263 47.3183 182.215 46.8702 181.124 46.5645C180.033 46.2589 178.973 46.107 177.948 46.107C176.266 46.107 175.017 46.3902 174.198 46.9583C173.378 47.5264 172.97 48.2802 172.97 49.2177C172.97 49.8721 173.204 50.4083 173.675 50.8227C174.143 51.2371 174.74 51.5652 175.46 51.8052C176.18 52.0452 177.162 52.3189 178.407 52.6246C180.11 53.0183 181.507 53.427 182.6 53.8527C183.691 54.2783 184.625 54.9289 185.399 55.8008C186.173 56.6746 186.562 57.8539 186.562 59.337C186.562 60.6027 186.218 61.7502 185.53 62.7758C184.842 63.8014 183.8 64.6208 182.403 65.2321C181.006 65.8433 179.302 66.1489 177.293 66.1489C175.525 66.1489 173.817 65.8977 172.167 65.3952L172.169 65.4008Z" fill="black"/>
<path d="M200.907 64.8779C200.427 65.2716 199.842 65.566 199.156 65.7629C198.468 65.9597 197.742 66.0572 196.977 66.0572C195.055 66.0572 193.572 65.5547 192.524 64.5516C191.476 63.5485 190.953 62.0841 190.953 60.1622V51.7454H188.071V48.4697H190.953V44.4741H195.046V48.4697H199.73V51.7454H195.046V60.0647C195.046 60.916 195.252 61.5666 195.668 62.0129C196.083 62.461 196.683 62.6841 197.47 62.6841C198.387 62.6841 199.152 62.4441 199.763 61.9641L200.909 64.8797L200.907 64.8779Z" fill="black"/>
<path d="M206.768 64.9097C205.349 64.1466 204.241 63.0816 203.444 61.7166C202.647 60.3516 202.248 58.8066 202.248 57.0816C202.248 55.3566 202.645 53.8172 203.444 52.4635C204.241 51.1097 205.349 50.0503 206.768 49.2872C208.188 48.5241 209.782 48.1416 211.55 48.1416C213.318 48.1416 214.945 48.5241 216.365 49.2872C217.784 50.0522 218.892 51.1097 219.689 52.4635C220.486 53.8172 220.883 55.3566 220.883 57.0816C220.883 58.8066 220.484 60.3516 219.689 61.7166C218.892 63.0816 217.784 64.1466 216.365 64.9097C214.945 65.6747 213.34 66.0554 211.55 66.0554C209.759 66.0554 208.188 65.6729 206.768 64.9097ZM215.283 61.0453C216.265 60.0422 216.757 58.7204 216.757 57.0835C216.757 55.4466 216.265 54.1247 215.283 53.1197C214.3 52.1166 213.055 51.6141 211.55 51.6141C210.044 51.6141 208.805 52.1166 207.833 53.1197C206.862 54.1247 206.377 55.4447 206.377 57.0835C206.377 58.7222 206.862 60.0422 207.833 61.0453C208.805 62.0503 210.044 62.551 211.55 62.551C213.055 62.551 214.3 62.0485 215.283 61.0453Z" fill="black"/>
<path d="M234.933 48.1416V52.0397C234.584 51.9741 234.267 51.9422 233.982 51.9422C232.388 51.9422 231.143 52.4072 230.249 53.3335C229.353 54.2616 228.907 55.5985 228.907 57.346V65.8285H224.813V48.3404H228.712V50.8941C229.891 49.0604 231.965 48.1435 234.935 48.1435L234.933 48.1416Z" fill="black"/>
<path d="M254.617 58.3922H240.893C241.133 59.6804 241.762 60.7004 242.776 61.4541C243.792 62.2079 245.052 62.5847 246.558 62.5847C248.48 62.5847 250.062 61.951 251.307 60.6853L253.501 63.2072C252.715 64.1466 251.722 64.8553 250.522 65.3353C249.32 65.8153 247.968 66.0554 246.46 66.0554C244.538 66.0554 242.847 65.6729 241.385 64.9097C239.922 64.1466 238.792 63.0816 237.995 61.7166C237.198 60.3516 236.8 58.8066 236.8 57.0816C236.8 55.3566 237.188 53.8453 237.963 52.4803C238.737 51.1153 239.813 50.0522 241.188 49.2872C242.564 48.5241 244.113 48.1416 245.838 48.1416C247.563 48.1416 249.063 48.5185 250.407 49.2722C251.75 50.026 252.798 51.0853 253.552 52.4485C254.305 53.8135 254.682 55.3903 254.682 57.181C254.682 57.4641 254.66 57.8691 254.617 58.3922ZM242.515 52.5797C241.61 53.3541 241.058 54.3872 240.862 55.6754H250.784C250.61 54.4097 250.073 53.3822 249.179 52.5966C248.283 51.811 247.171 51.4172 245.838 51.4172C244.505 51.4172 243.419 51.8053 242.513 52.5797H242.515Z" fill="black"/>
</svg>
