<svg width="283" height="87" viewBox="0 0 283 87" fill="none" xmlns="http://www.w3.org/2000/svg">
<path d="M272.09 2.45166C277.072 2.45166 281.126 6.50541 281.126 11.4873V75.5092C281.126 80.4929 277.072 84.5467 272.09 84.5467H11.6284C6.64469 84.5467 2.59094 80.4929 2.59094 75.5092V11.4873C2.59094 6.50541 6.64469 2.45166 11.6284 2.45166H272.09ZM272.09 0.57666H11.6284C5.60032 0.57666 0.715942 5.46104 0.715942 11.4873V75.5092C0.715942 81.5354 5.60032 86.4217 11.6284 86.4217H272.09C278.117 86.4217 283.001 81.5373 283.001 75.5092V11.4873C283.001 5.46104 278.117 0.57666 272.09 0.57666Z" fill="black"/>
<path d="M93.2284 52.4315H97.166V61.3621C96.0128 62.279 94.6703 62.984 93.1328 63.4753C91.5972 63.9665 90.0166 64.2121 88.3966 64.2121C86.1128 64.2121 84.0541 63.7153 82.2184 62.7234C80.3828 61.7315 78.9428 60.3609 77.8985 58.6096C76.8522 56.8603 76.3309 54.8859 76.3309 52.6884C76.3309 50.4909 76.8541 48.5165 77.8985 46.7671C78.9428 45.0178 80.3903 43.6471 82.2353 42.6553C84.0803 41.6634 86.1559 41.1665 88.4603 41.1665C90.3372 41.1665 92.0453 41.4759 93.5809 42.0946C95.1166 42.7134 96.4084 43.6209 97.4528 44.8153L94.8278 47.3765C93.1197 45.6703 91.061 44.8153 88.6497 44.8153C87.071 44.8153 85.6684 45.1471 84.4403 45.8071C83.2122 46.469 82.2522 47.3971 81.5603 48.5915C80.8666 49.7859 80.5197 51.1528 80.5197 52.6884C80.5197 54.224 80.8666 55.5271 81.5603 56.7215C82.2541 57.9159 83.2141 58.8553 84.4403 59.5378C85.6666 60.2203 87.0597 60.5615 88.6178 60.5615C90.3672 60.5615 91.9028 60.1771 93.2266 59.4084V52.4315H93.2284Z" fill="black"/>
<path d="M105.262 62.9952C103.875 62.249 102.793 61.2084 102.013 59.8752C101.233 58.5421 100.845 57.0327 100.845 55.3471C100.845 53.6615 101.235 52.1577 102.013 50.834C102.791 49.5121 103.875 48.4771 105.262 47.729C106.65 46.9827 108.206 46.6096 109.935 46.6096C111.663 46.6096 113.252 46.9827 114.639 47.729C116.027 48.4752 117.108 49.5102 117.888 50.834C118.667 52.1577 119.057 53.6615 119.057 55.3471C119.057 57.0327 118.667 58.5421 117.888 59.8752C117.108 61.2084 116.027 62.249 114.639 62.9952C113.252 63.7415 111.684 64.1146 109.935 64.1146C108.185 64.1146 106.648 63.7415 105.262 62.9952ZM113.583 59.219C114.543 58.2384 115.023 56.9465 115.023 55.3471C115.023 53.7477 114.543 52.4559 113.583 51.4752C112.623 50.4946 111.407 50.0034 109.935 50.0034C108.463 50.0034 107.252 50.4946 106.303 51.4752C105.352 52.4577 104.878 53.7477 104.878 55.3471C104.878 56.9465 105.352 58.2384 106.303 59.219C107.252 60.2015 108.463 60.6909 109.935 60.6909C111.407 60.6909 112.623 60.1996 113.583 59.219Z" fill="black"/>
<path d="M125.906 62.9952C124.518 62.249 123.437 61.2084 122.657 59.8752C121.877 58.5421 121.488 57.0327 121.488 55.3471C121.488 53.6615 121.877 52.1577 122.657 50.834C123.435 49.5121 124.518 48.4771 125.906 47.729C127.293 46.9827 128.85 46.6096 130.578 46.6096C132.307 46.6096 133.895 46.9827 135.283 47.729C136.67 48.4752 137.752 49.5102 138.532 50.834C139.31 52.1577 139.7 53.6615 139.7 55.3471C139.7 57.0327 139.31 58.5421 138.532 59.8752C137.752 61.2084 136.67 62.249 135.283 62.9952C133.895 63.7415 132.328 64.1146 130.578 64.1146C128.829 64.1146 127.292 63.7415 125.906 62.9952ZM134.227 59.219C135.187 58.2384 135.667 56.9465 135.667 55.3471C135.667 53.7477 135.187 52.4559 134.227 51.4752C133.267 50.4946 132.05 50.0034 130.578 50.0034C129.107 50.0034 127.895 50.4946 126.947 51.4752C125.996 52.4577 125.522 53.7477 125.522 55.3471C125.522 56.9465 125.996 58.2384 126.947 59.219C127.895 60.2015 129.107 60.6909 130.578 60.6909C132.05 60.6909 133.267 60.1996 134.227 59.219Z" fill="black"/>
<path d="M160.503 46.7992V61.2985C160.503 67.3154 157.43 70.3248 151.286 70.3248C149.643 70.3248 148.085 70.1167 146.613 69.7004C145.142 69.2842 143.925 68.6804 142.965 67.8929L144.757 64.8835C145.503 65.5023 146.448 65.9992 147.59 66.3723C148.732 66.7454 149.889 66.9329 151.063 66.9329C152.94 66.9329 154.316 66.5054 155.192 65.6523C156.067 64.7992 156.504 63.4979 156.504 61.7467V60.8504C155.822 61.5967 154.989 62.1629 154.008 62.5473C153.026 62.9317 151.95 63.1229 150.776 63.1229C149.154 63.1229 147.688 62.776 146.375 62.0823C145.063 61.3885 144.028 60.4135 143.27 59.1535C142.513 57.8954 142.134 56.4554 142.134 54.8335C142.134 53.2117 142.513 51.7773 143.27 50.5285C144.028 49.2798 145.063 48.316 146.375 47.6317C147.688 46.9492 149.154 46.6079 150.776 46.6079C152.013 46.6079 153.138 46.8104 154.153 47.2154C155.165 47.6204 156.015 48.2392 156.697 49.0717V46.7992H160.505H160.503ZM155.111 58.3698C156.082 57.4623 156.568 56.2848 156.568 54.8335C156.568 53.3823 156.082 52.2404 155.111 51.3442C154.14 50.4479 152.897 49.9998 151.382 49.9998C149.867 49.9998 148.592 50.4479 147.62 51.3442C146.649 52.2404 146.163 53.4029 146.163 54.8335C146.163 56.2642 146.649 57.4642 147.62 58.3698C148.592 59.2773 149.844 59.7292 151.382 59.7292C152.919 59.7292 154.14 59.2754 155.111 58.3698Z" fill="black"/>
<path d="M165.753 40.1409H169.755V63.8896H165.753V40.1409Z" fill="black"/>
<path d="M191.006 56.6258H177.596C177.83 57.8858 178.443 58.8814 179.437 59.6183C180.429 60.3552 181.661 60.7227 183.135 60.7227C185.012 60.7227 186.558 60.1039 187.775 58.8664L189.92 61.3302C189.152 62.247 188.18 62.9408 187.008 63.4114C185.835 63.8802 184.513 64.1164 183.039 64.1164C181.16 64.1164 179.507 63.7433 178.078 62.997C176.647 62.2508 175.545 61.2102 174.765 59.877C173.985 58.5439 173.597 57.0345 173.597 55.3489C173.597 53.6633 173.975 52.1858 174.733 50.8527C175.49 49.5195 176.54 48.4789 177.885 47.7327C179.229 46.9864 180.744 46.6133 182.43 46.6133C184.115 46.6133 185.582 46.9808 186.894 47.7177C188.207 48.4545 189.23 49.4895 189.967 50.8227C190.704 52.1558 191.072 53.6989 191.072 55.4483C191.072 55.7258 191.051 56.1195 191.008 56.6333L191.006 56.6258ZM179.18 50.9445C178.295 51.702 177.755 52.7108 177.564 53.9689H187.262C187.091 52.7314 186.568 51.7283 185.694 50.9595C184.818 50.1908 183.731 49.8064 182.43 49.8064C181.128 49.8064 180.065 50.1852 179.18 50.9427V50.9445Z" fill="black"/>
<path d="M218.418 42.4471C219.858 43.0864 220.963 44.0052 221.732 45.1996C222.5 46.3939 222.885 47.8133 222.885 49.4558C222.885 51.0983 222.5 52.4914 221.732 53.6971C220.963 54.9027 219.858 55.8252 218.418 56.4664C216.978 57.1058 215.287 57.4264 213.345 57.4264H208.288V63.8914H204.127V41.4871H213.345C215.285 41.4871 216.977 41.8077 218.418 42.4471ZM217.282 52.7539C218.222 51.9852 218.69 50.8864 218.69 49.4577C218.69 48.0289 218.222 46.9283 217.282 46.1614C216.343 45.3927 214.967 45.0083 213.153 45.0083H208.288V53.9052H213.153C214.967 53.9052 216.343 53.5208 217.282 52.7521V52.7539Z" fill="black"/>
<path d="M226.98 40.1409H230.981V63.8896H226.98V40.1409Z" fill="black"/>
<path d="M248.535 48.4153C249.868 49.621 250.535 51.4397 250.535 53.8716V63.8897H246.759V61.8085C246.268 62.5547 245.568 63.1266 244.663 63.5203C243.755 63.9141 242.662 64.1128 241.382 64.1128C240.101 64.1128 238.982 63.8935 238.022 63.4566C237.062 63.0197 236.319 62.4122 235.798 61.6322C235.275 60.8541 235.014 59.9728 235.014 58.9922C235.014 57.4566 235.584 56.2228 236.726 55.2947C237.868 54.3666 239.666 53.9016 242.118 53.9016H246.536V53.6447C246.536 52.4503 246.178 51.5316 245.463 50.8922C244.749 50.2528 243.688 49.9322 242.28 49.9322C241.32 49.9322 240.375 50.0822 239.447 50.3803C238.518 50.6803 237.735 51.0947 237.093 51.6291L235.526 48.7172C236.422 48.0347 237.498 47.5116 238.758 47.1497C240.017 46.7878 241.352 46.606 242.76 46.606C245.278 46.606 247.203 47.2097 248.537 48.4135L248.535 48.4153ZM244.886 60.5128C245.664 60.0535 246.213 59.3972 246.534 58.5441V56.5603H242.405C240.101 56.5603 238.948 57.3178 238.948 58.8328C238.948 59.5585 239.237 60.1341 239.812 60.5616C240.388 60.9891 241.188 61.201 242.212 61.201C243.236 61.201 244.106 60.9722 244.884 60.5128H244.886Z" fill="black"/>
<path d="M271.34 46.7991L263.34 65.266C262.593 67.1222 261.686 68.4291 260.619 69.1866C259.552 69.9441 258.26 70.3228 256.747 70.3228C255.894 70.3228 255.05 70.1841 254.218 69.9066C253.385 69.6291 252.703 69.2447 252.17 68.7534L253.772 65.8097C254.156 66.1716 254.608 66.4603 255.131 66.6741C255.654 66.8878 256.181 66.9947 256.715 66.9947C257.42 66.9947 258.002 66.8128 258.459 66.4509C258.918 66.0872 259.338 65.4797 259.723 64.6266L260.012 63.9553L252.555 46.7991H256.715L262.093 59.4422L267.502 46.7991H271.342H271.34Z" fill="black"/>
<path d="M83.4897 29.0485C82.5859 29.0485 81.7441 28.8517 80.9622 28.4579C80.1803 28.0642 79.4997 27.5354 78.9203 26.8698C78.3391 26.206 77.8872 25.456 77.5647 24.6235C77.2422 23.791 77.0809 22.9285 77.0809 22.0379C77.0809 21.1473 77.2422 20.2285 77.5647 19.396C77.8872 18.5635 78.3353 17.8248 78.9109 17.1798C79.4847 16.5348 80.1634 16.0285 80.9434 15.6592C81.7234 15.2917 82.5728 15.1079 83.4897 15.1079C84.8191 15.1079 85.9159 15.3854 86.7803 15.9404C87.6447 16.4954 88.2972 17.2192 88.7359 18.1098L87.4009 19.0398C87.0016 18.2392 86.4522 17.6467 85.7547 17.2585C85.0572 16.8704 84.2903 16.6773 83.4503 16.6773C82.7528 16.6773 82.1209 16.8254 81.5528 17.1217C80.9847 17.4179 80.4972 17.8229 80.0903 18.331C79.6834 18.841 79.3741 19.4185 79.1603 20.0635C78.9466 20.7085 78.8416 21.3798 78.8416 22.0773C78.8416 22.8123 78.9616 23.506 79.1997 24.1585C79.4378 24.811 79.7772 25.3848 80.2159 25.8817C80.6547 26.3785 81.1647 26.7685 81.7459 27.0535C82.3272 27.3367 82.9534 27.4792 83.6247 27.4792C84.4122 27.4792 85.1603 27.2785 85.8709 26.8792C86.5816 26.4798 87.2528 25.8667 87.8847 25.0398V26.8398C86.6453 28.3117 85.1809 29.0467 83.4897 29.0467V29.0485ZM87.6709 23.4142H84.7084V22.0979H89.1428V28.951H87.6709V23.4142Z" fill="black"/>
<path d="M101.126 27.4022V28.9509H91.7941V15.2053H100.952V16.7541H93.5359V21.2072H99.9841V22.6584H93.5359V27.4022H101.126Z" fill="black"/>
<path d="M113.42 16.7541H108.677V28.9509H106.935V16.7541H102.191V15.2053H113.42V16.7541Z" fill="black"/>
<path d="M119.713 28.9509V15.2053H121.455V28.9509H119.713Z" fill="black"/>
<path d="M126.489 18.4191V28.9509H124.747V15.2053H126.219L134.621 25.9509V15.2241H136.363V28.9509H134.775L126.489 18.4191Z" fill="black"/>
<path d="M150.129 29.0485C149.162 29.0485 148.284 28.8554 147.497 28.4673C146.709 28.0792 146.028 27.5542 145.455 26.8885C144.881 26.2229 144.438 25.4748 144.129 24.6423C143.82 23.8098 143.664 22.9548 143.664 22.0773C143.664 21.1998 143.829 20.2867 144.157 19.4542C144.487 18.6217 144.945 17.8792 145.532 17.2285C146.118 16.576 146.807 16.0604 147.594 15.6798C148.382 15.2992 149.24 15.1079 150.168 15.1079C151.097 15.1079 152.013 15.3085 152.801 15.7079C153.588 16.1073 154.265 16.6435 154.833 17.3148C155.402 17.986 155.84 18.7342 156.15 19.561C156.459 20.3879 156.615 21.2335 156.615 22.0979C156.615 23.0148 156.453 23.8885 156.131 24.721C155.808 25.5535 155.353 26.296 154.766 26.9467C154.179 27.5992 153.491 28.111 152.703 28.486C151.916 28.861 151.057 29.0467 150.129 29.0467V29.0485ZM145.425 22.0792C145.425 22.7767 145.537 23.4517 145.764 24.1023C145.989 24.7548 146.31 25.3323 146.722 25.8348C147.135 26.3373 147.632 26.7385 148.213 27.0348C148.794 27.331 149.439 27.4792 150.15 27.4792C150.86 27.4792 151.543 27.3235 152.124 27.0142C152.705 26.7048 153.198 26.2923 153.605 25.7748C154.012 25.2592 154.322 24.6779 154.535 24.0329C154.749 23.3879 154.854 22.7354 154.854 22.0773C154.854 21.3798 154.742 20.7085 154.515 20.0635C154.29 19.4185 153.965 18.841 153.547 18.331C153.127 17.821 152.63 17.4217 152.057 17.131C151.483 16.8404 150.847 16.696 150.15 16.696C149.415 16.696 148.757 16.8479 148.175 17.1517C147.594 17.4554 147.101 17.8642 146.694 18.3817C146.287 18.8973 145.974 19.4748 145.755 20.1142C145.535 20.7535 145.425 21.4079 145.425 22.0792Z" fill="black"/>
<path d="M160.777 18.4191V28.9509H159.035V15.2053H160.507L168.911 25.9509V15.2241H170.653V28.9509H169.065L160.779 18.4191H160.777Z" fill="black"/>
<path d="M68.6397 42.4043L57.8847 36.198L49.0403 44.748L57.1235 52.563L68.6397 45.9161C69.2735 45.5505 69.6522 44.8942 69.6522 44.1611C69.6522 43.428 69.2735 42.7718 68.6397 42.4043Z" fill="#FFD109"/>
<path d="M56.0603 35.1423L44.2235 28.3117L18.2866 15.0198L47.5816 43.3379L56.0603 35.1423Z" fill="#06EF79"/>
<path d="M18.7178 74.0601L44.2685 59.9845L55.2972 53.617L47.5816 46.1582L18.7178 74.0601Z" fill="#F93646"/>
<path d="M16.556 16.1655L16.5278 73.3568L46.1247 44.748L16.556 16.1655Z" fill="#05D5FB"/>
</svg>
