<svg width="40" height="41" viewBox="0 0 40 41" fill="none" xmlns="http://www.w3.org/2000/svg">
<path d="M19.4167 4.41664L10.6 13.2333C10.2667 13.5666 10.2667 14.0833 10.6 14.4166L12.75 16.5666C13.0833 16.9 13.6 16.9 13.9333 16.5666L19.4167 11.0833C19.75 10.75 20.2667 10.75 20.6 11.0833L26.0833 16.5666C26.4167 16.9 26.9333 16.9 27.2667 16.5666L29.4167 14.4166C29.75 14.0833 29.75 13.5666 29.4167 13.2333L20.6 4.41664C20.2667 4.09997 19.7333 4.09997 19.4167 4.41664Z" fill="#FF7A00"/>
<path d="M19.4167 36.5833L10.6 27.7666C10.2667 27.4333 10.2667 26.9166 10.6 26.5833L12.75 24.4333C13.0833 24.1 13.6 24.1 13.9333 24.4333L19.4167 29.9166C19.75 30.25 20.2667 30.25 20.6 29.9166L26.0833 24.4333C26.4167 24.1 26.9333 24.1 27.2667 24.4333L29.4167 26.5833C29.75 26.9166 29.75 27.4333 29.4167 27.7666L20.6 36.5833C20.2667 36.9 19.7333 36.9 19.4167 36.5833Z" fill="#FF7A00"/>
<path d="M33.5 17.3333L36.0667 19.9C36.4 20.2333 36.4 20.75 36.0667 21.0833L33.5 23.65C33.1667 23.9833 32.65 23.9833 32.3167 23.65L29.75 21.0833C29.4167 20.75 29.4167 20.2333 29.75 19.9L32.3167 17.3333C32.65 17.0166 33.1833 17.0166 33.5 17.3333Z" fill="#FF7A00"/>
<path d="M7.66668 17.3333L10.2333 19.9C10.5667 20.2333 10.5667 20.75 10.2333 21.0833L7.66668 23.65C7.33334 23.9833 6.81666 23.9833 6.48333 23.65L3.91668 21.0833C3.58334 20.75 3.58334 20.2333 3.91668 19.9L6.48333 17.3333C6.81666 17.0166 7.35001 17.0166 7.66668 17.3333Z" fill="#FF7A00"/>
<path d="M20.5833 16.9667L23.5333 19.9167C23.8667 20.25 23.8667 20.7667 23.5333 21.1L20.5833 24.05C20.25 24.3833 19.7333 24.3833 19.4 24.05L16.45 21.1C16.1167 20.7667 16.1167 20.25 16.45 19.9167L19.4 16.9667C19.7333 16.6333 20.2667 16.6333 20.5833 16.9667Z" fill="#FF7A00"/>
</svg>
