<svg width="40" height="41" viewBox="0 0 40 41" fill="none" xmlns="http://www.w3.org/2000/svg">
<path d="M24.95 21.75H23.6666H15.8833V26.4666H18.0666H24.95C26.5333 26.4666 27.8333 25.4 27.8333 24.1C27.8333 22.8 26.5333 21.75 24.95 21.75Z" fill="#FF7A00"/>
<path d="M19.9999 3.83334C10.7999 3.83334 3.33325 11.3 3.33325 20.5C3.33325 29.7 10.7999 37.1667 19.9999 37.1667C29.1999 37.1667 36.6666 29.7 36.6666 20.5C36.6666 11.3 29.1999 3.83334 19.9999 3.83334ZM24.9499 28.9667H22.1999V31.3333C22.1999 32.0167 21.6333 32.5833 20.9499 32.5833C20.2666 32.5833 19.6999 32.0167 19.6999 31.3333V28.9667H18.0666H17.6833V31.3333C17.6833 32.0167 17.1166 32.5833 16.4333 32.5833C15.7499 32.5833 15.1833 32.0167 15.1833 31.3333V28.9667H14.6333H11.7499C11.0666 28.9667 10.4999 28.4 10.4999 27.7167C10.4999 27.0333 11.0666 26.4667 11.7499 26.4667H13.3833V20.5V14.5333H11.7499C11.0666 14.5333 10.4999 13.9667 10.4999 13.2833C10.4999 12.6 11.0666 12.0333 11.7499 12.0333H14.6333H15.1833V9.66668C15.1833 8.98334 15.7499 8.41668 16.4333 8.41668C17.1166 8.41668 17.6833 8.98334 17.6833 9.66668V12.0333H18.0666H19.6999V9.66668C19.6999 8.98334 20.2666 8.41668 20.9499 8.41668C21.6333 8.41668 22.1999 8.98334 22.1999 9.66668V12.0333H23.6666C26.2499 12.0333 28.5333 14.3 28.5333 16.9C28.5333 18.0167 28.1333 19.0333 27.4999 19.8667C29.1833 20.6833 30.3333 22.2833 30.3333 24.1333C30.3333 26.7833 27.9166 28.9667 24.9499 28.9667Z" fill="#FF7A00"/>
<path d="M26.0333 16.8833C26.0333 15.7833 25 14.5167 23.6666 14.5167H18.0666H15.8833V19.2333H23.6666C24.9666 19.25 26.0333 18.1833 26.0333 16.8833Z" fill="#FF7A00"/>
</svg>
