<svg width="40" height="41" viewBox="0 0 40 41" fill="none" xmlns="http://www.w3.org/2000/svg">
<path d="M28.5834 17.1666C29.5039 17.1666 30.2501 16.4205 30.2501 15.5C30.2501 14.5795 29.5039 13.8333 28.5834 13.8333C27.6629 13.8333 26.9167 14.5795 26.9167 15.5C26.9167 16.4205 27.6629 17.1666 28.5834 17.1666Z" fill="#FF7A00"/>
<path d="M28.5834 27.1666C29.5039 27.1666 30.2501 26.4205 30.2501 25.5C30.2501 24.5795 29.5039 23.8333 28.5834 23.8333C27.6629 23.8333 26.9167 24.5795 26.9167 25.5C26.9167 26.4205 27.6629 27.1666 28.5834 27.1666Z" fill="#FF7A00"/>
<path d="M32.9167 22.1666C33.8372 22.1666 34.5834 21.4205 34.5834 20.5C34.5834 19.5795 33.8372 18.8333 32.9167 18.8333C31.9963 18.8333 31.2501 19.5795 31.2501 20.5C31.2501 21.4205 31.9963 22.1666 32.9167 22.1666Z" fill="#FF7A00"/>
<path d="M11.3334 17.1666C12.2538 17.1666 13 16.4205 13 15.5C13 14.5795 12.2538 13.8333 11.3334 13.8333C10.4129 13.8333 9.6667 14.5795 9.6667 15.5C9.6667 16.4205 10.4129 17.1666 11.3334 17.1666Z" fill="#FF7A00"/>
<path d="M11.3334 27.1666C12.2538 27.1666 13 26.4205 13 25.5C13 24.5795 12.2538 23.8333 11.3334 23.8333C10.4129 23.8333 9.6667 24.5795 9.6667 25.5C9.6667 26.4205 10.4129 27.1666 11.3334 27.1666Z" fill="#FF7A00"/>
<path d="M7.00008 22.1666C7.92055 22.1666 8.66675 21.4205 8.66675 20.5C8.66675 19.5795 7.92055 18.8333 7.00008 18.8333C6.0796 18.8333 5.33341 19.5795 5.33341 20.5C5.33341 21.4205 6.0796 22.1666 7.00008 22.1666Z" fill="#FF7A00"/>
<path d="M26.5 10.8333C27.4205 10.8333 28.1667 10.0871 28.1667 9.16667C28.1667 8.24619 27.4205 7.5 26.5 7.5C25.5796 7.5 24.8334 8.24619 24.8334 9.16667C24.8334 10.0871 25.5796 10.8333 26.5 10.8333Z" fill="#FF7A00"/>
<path d="M13.5001 10.8333C14.4205 10.8333 15.1667 10.0871 15.1667 9.16667C15.1667 8.24619 14.4205 7.5 13.5001 7.5C12.5796 7.5 11.8334 8.24619 11.8334 9.16667C11.8334 10.0871 12.5796 10.8333 13.5001 10.8333Z" fill="#FF7A00"/>
<path d="M20.0834 12.1666C21.0038 12.1666 21.75 11.4205 21.75 10.5C21.75 9.57951 21.0038 8.83331 20.0834 8.83331C19.1629 8.83331 18.4167 9.57951 18.4167 10.5C18.4167 11.4205 19.1629 12.1666 20.0834 12.1666Z" fill="#FF7A00"/>
<path d="M26.5 33.8333C27.4205 33.8333 28.1667 33.0871 28.1667 32.1666C28.1667 31.2462 27.4205 30.5 26.5 30.5C25.5796 30.5 24.8334 31.2462 24.8334 32.1666C24.8334 33.0871 25.5796 33.8333 26.5 33.8333Z" fill="#FF7A00"/>
<path d="M13.5001 33.8333C14.4205 33.8333 15.1667 33.0871 15.1667 32.1666C15.1667 31.2462 14.4205 30.5 13.5001 30.5C12.5796 30.5 11.8334 31.2462 11.8334 32.1666C11.8334 33.0871 12.5796 33.8333 13.5001 33.8333Z" fill="#FF7A00"/>
<path d="M20.0834 32.5C21.0038 32.5 21.75 31.7538 21.75 30.8333C21.75 29.9128 21.0038 29.1667 20.0834 29.1667C19.1629 29.1667 18.4167 29.9128 18.4167 30.8333C18.4167 31.7538 19.1629 32.5 20.0834 32.5Z" fill="#FF7A00"/>
<path d="M22.9167 17.5834C24.0673 17.5834 25 16.6506 25 15.5C25 14.3494 24.0673 13.4167 22.9167 13.4167C21.7661 13.4167 20.8334 14.3494 20.8334 15.5C20.8334 16.6506 21.7661 17.5834 22.9167 17.5834Z" fill="#FF7A00"/>
<path d="M17.0834 17.5834C18.234 17.5834 19.1667 16.6506 19.1667 15.5C19.1667 14.3494 18.234 13.4167 17.0834 13.4167C15.9328 13.4167 15 14.3494 15 15.5C15 16.6506 15.9328 17.5834 17.0834 17.5834Z" fill="#FF7A00"/>
<path d="M25.8334 22.5834C26.984 22.5834 27.9167 21.6506 27.9167 20.5C27.9167 19.3494 26.984 18.4167 25.8334 18.4167C24.6828 18.4167 23.75 19.3494 23.75 20.5C23.75 21.6506 24.6828 22.5834 25.8334 22.5834Z" fill="#FF7A00"/>
<path d="M14.1667 22.5834C15.3173 22.5834 16.25 21.6506 16.25 20.5C16.25 19.3494 15.3173 18.4167 14.1667 18.4167C13.0161 18.4167 12.0834 19.3494 12.0834 20.5C12.0834 21.6506 13.0161 22.5834 14.1667 22.5834Z" fill="#FF7A00"/>
<path d="M17.0834 27.5834C18.234 27.5834 19.1667 26.6506 19.1667 25.5C19.1667 24.3494 18.234 23.4167 17.0834 23.4167C15.9328 23.4167 15 24.3494 15 25.5C15 26.6506 15.9328 27.5834 17.0834 27.5834Z" fill="#FF7A00"/>
<path d="M22.9167 27.5834C24.0673 27.5834 25 26.6506 25 25.5C25 24.3494 24.0673 23.4167 22.9167 23.4167C21.7661 23.4167 20.8334 24.3494 20.8334 25.5C20.8334 26.6506 21.7661 27.5834 22.9167 27.5834Z" fill="#FF7A00"/>
<path d="M20 6.05C19.1834 6.05 18.5334 5.4 18.5334 4.58334C18.5334 3.76667 19.1834 3.11667 20 3.11667C20.8167 3.11667 21.4667 3.76667 21.4667 4.58334C21.4667 5.4 20.8167 6.05 20 6.05Z" fill="#FF7A00"/>
<path d="M28.75 6.5C28.05 6.5 27.4834 5.93333 27.4834 5.25C27.4834 4.56667 28.05 4 28.7334 4C29.4167 4 30 4.56667 30 5.25C30 5.93333 29.45 6.5 28.75 6.5Z" fill="#FF7A00"/>
<path d="M11.25 6.5C10.5667 6.5 10 5.93333 10 5.25C10 4.56667 10.55 4 11.25 4H11.2667C11.9501 4 12.5167 4.56667 12.5167 5.25C12.5167 5.93333 11.95 6.5 11.25 6.5Z" fill="#FF7A00"/>
<path d="M20 37.8C19.1834 37.8 18.5334 37.15 18.5334 36.3333C18.5334 35.5166 19.1834 34.8666 20 34.8666C20.8167 34.8666 21.4667 35.5166 21.4667 36.3333C21.4667 37.15 20.8167 37.8 20 37.8Z" fill="#FF7A00"/>
<path d="M28.75 36.9167C28.05 36.9167 27.4834 36.35 27.4834 35.6667C27.4834 34.9833 28.05 34.4167 28.7334 34.4167C29.4167 34.4167 30 34.9833 30 35.6667C30 36.35 29.45 36.9167 28.75 36.9167Z" fill="#FF7A00"/>
<path d="M11.25 36.9167C10.5667 36.9167 10 36.35 10 35.6667C10 34.9833 10.55 34.4167 11.25 34.4167H11.2667C11.9501 34.4167 12.5167 34.9833 12.5167 35.6667C12.5167 36.35 11.95 36.9167 11.25 36.9167Z" fill="#FF7A00"/>
<path d="M2.58335 21.9666C1.78335 21.9666 1.11673 21.3166 1.11673 20.5166V20.5C1.11673 19.7 1.76669 19.0333 2.58335 19.0333C3.40002 19.0333 4.05003 19.6833 4.05003 20.5C4.05003 21.3166 3.38335 21.9666 2.58335 21.9666Z" fill="#FF7A00"/>
<path d="M6.25004 30.0833C5.56671 30.0833 5.00004 29.5333 5.00004 28.8333V28.8166C5.00004 28.1333 5.56671 27.5666 6.25004 27.5666C6.93338 27.5666 7.50004 28.1333 7.50004 28.8166C7.50004 29.5 6.93338 30.0833 6.25004 30.0833Z" fill="#FF7A00"/>
<path d="M6.25004 13.4333C5.56671 13.4333 5.00004 12.8667 5.00004 12.1833C5.00004 11.5 5.56671 10.9333 6.25004 10.9333C6.93338 10.9333 7.50004 11.4833 7.50004 12.1667V12.1833C7.50004 12.8667 6.93338 13.4333 6.25004 13.4333Z" fill="#FF7A00"/>
<path d="M37.5 21.9666C36.7 21.9666 36.0334 21.3166 36.0334 20.5166V20.5C36.0334 19.7 36.6834 19.0333 37.5 19.0333C38.3167 19.0333 38.9667 19.6833 38.9667 20.5C38.9667 21.3166 38.3 21.9666 37.5 21.9666Z" fill="#FF7A00"/>
<path d="M33.8334 30.0833C33.15 30.0833 32.5834 29.5333 32.5834 28.8333V28.8166C32.5834 28.1333 33.15 27.5666 33.8334 27.5666C34.5167 27.5666 35.0834 28.1333 35.0834 28.8166C35.0834 29.5 34.5167 30.0833 33.8334 30.0833Z" fill="#FF7A00"/>
<path d="M33.8334 13.4333C33.15 13.4333 32.5834 12.8667 32.5834 12.1833C32.5834 11.5 33.15 10.9333 33.8334 10.9333C34.5167 10.9333 35.0834 11.4833 35.0834 12.1833V12.2C35.0834 12.8667 34.5167 13.4333 33.8334 13.4333Z" fill="#FF7A00"/>
</svg>
