<svg width="40" height="41" viewBox="0 0 40 41" fill="none" xmlns="http://www.w3.org/2000/svg">
<path d="M14.6167 24.55L17.3 25.75C19.0167 26.5167 20.9833 26.5167 22.7167 25.75L25.4 24.55C27.8 23.4833 30.0167 26.3833 28.35 28.4167L22.5834 35.4667C21.1667 37.2 18.85 37.2 17.4167 35.4667L11.6667 28.4167C9.98335 26.3833 12.2 23.4833 14.6167 24.55Z" fill="#FF7A00"/>
<path d="M14.2833 19.95C13.7833 20.3167 13.85 21.0833 14.4167 21.3667L18.3333 23.3167C19.25 23.7833 20.7333 23.7833 21.6333 23.3167L25.55 21.3667C26.1 21.0833 26.1667 20.3333 25.6834 19.95L20.5 16.05C20.2 15.8333 19.8 15.8333 19.5 16.05L14.2833 19.95Z" fill="#FF7A00"/>
<path d="M29.8 14.2333L22.85 5.56664C22.7167 5.39997 22.5667 5.24997 22.4167 5.09997C21.9834 4.6833 21.3667 5.06664 21.3667 5.66664V12.8333C21.3667 13.1 21.4834 13.35 21.7 13.5L28.6167 18.7L28.9167 18.9166C29.2167 19.1333 29.6334 19.1333 29.8834 18.8666C31.05 17.6 31.0334 15.7666 29.8 14.2333Z" fill="#FF7A00"/>
<path d="M10.1834 14.3833L17.1 5.58332C17.2334 5.41665 17.3667 5.26665 17.5167 5.11665C17.95 4.69999 18.5667 5.06665 18.5667 5.68332V12.9667C18.5667 13.2333 18.45 13.4667 18.2334 13.6333L11.35 18.9167L11.0667 19.1333C10.7667 19.35 10.35 19.35 10.0834 19.0667C8.95005 17.7833 8.96671 15.95 10.1834 14.3833Z" fill="#FF7A00"/>
</svg>
