<svg width="40" height="41" viewBox="0 0 40 41" fill="none" xmlns="http://www.w3.org/2000/svg">
<path d="M33.3333 6.33331H9.16666C8.64999 6.33331 8.15001 6.58331 7.83334 6.99998L5.33334 10.3333C4.51668 11.4333 5.29999 13 6.66666 13H30.8333C31.35 13 31.85 12.75 32.1666 12.3333L34.6666 8.99998C35.4833 7.89998 34.7 6.33331 33.3333 6.33331Z" fill="#FF7A00"/>
<path d="M6.66666 17.1667H30.8333C31.35 17.1667 31.85 17.4167 32.1666 17.8333L34.6666 21.1667C35.4833 22.2667 34.7 23.8333 33.3333 23.8333H9.16666C8.64999 23.8333 8.15001 23.5833 7.83334 23.1667L5.33334 19.8333C4.51668 18.7333 5.29999 17.1667 6.66666 17.1667Z" fill="#FF7A00"/>
<path d="M33.3333 28H9.16666C8.64999 28 8.15001 28.25 7.83334 28.6666L5.33334 32C4.51668 33.1 5.29999 34.6666 6.66666 34.6666H30.8333C31.35 34.6666 31.85 34.4166 32.1666 34L34.6666 30.6666C35.4833 29.5666 34.7 28 33.3333 28Z" fill="#FF7A00"/>
</svg>
